<svg width="115" height="68" viewBox="0 0 115 68" version="1.1" xmlns="http://www.w3.org/2000/svg" xmlns:xlink="http://www.w3.org/1999/xlink">
<g id="Canvas" fill="none">
<g id="flowchart">
<rect id="Rectangle 8" x="1" y="1" width="23" height="23" rx="2" transform="translate(0 14)" stroke="#7A7A7A" stroke-width="2"/>
<rect id="Rectangle 8.16" x="1" y="1" width="23" height="23" rx="2" transform="translate(30 14)" stroke="#7A7A7A" stroke-width="2"/>
<rect id="Rectangle 8.17" x="1" y="1" width="23" height="23" rx="2" transform="translate(60 14)" stroke="#7A7A7A" stroke-width="2"/>
<rect id="Rectangle 8.18" x="1" y="1" width="23" height="23" rx="2" transform="translate(90 14)" stroke="#7A7A7A" stroke-width="2"/>
<rect id="Rectangle 8.12" x="1" y="1" width="23" height="23" rx="2" transform="translate(0 43)" stroke="#7A7A7A" stroke-width="2"/>
<rect id="Rectangle 8.13" x="1" y="1" width="23" height="23" rx="2" transform="translate(30 43)" stroke="#7A7A7A" stroke-width="2"/>
<rect id="Rectangle 8.14" x="1" y="1" width="23" height="23" rx="2" transform="translate(60 43)" stroke="#7A7A7A" stroke-width="2"/>
<rect id="Rectangle 8.15" x="1" y="1" width="23" height="23" rx="2" transform="translate(90 43)" stroke="#7A7A7A" stroke-width="2"/>
<rect id="Rectangle 8.8" width="115" height="10" rx="2" fill="#7A7A7A"/>
</g>
</g>
</svg>
